<mxfile host="Electron" modified="2023-05-11T15:28:21.254Z" agent="Mozilla/5.0 (Windows NT 10.0; Win64; x64) AppleWebKit/537.36 (KHTML, like Gecko) draw.io/21.2.8 Chrome/112.0.5615.165 Electron/24.2.0 Safari/537.36" etag="UDnCMaC7MqqX3jLnUpNy" version="21.2.8" type="device">
  <diagram name="Page-1" id="hQ3Wz7WgHiz5P3bQvDpH">
    <mxGraphModel dx="810" dy="469" grid="1" gridSize="10" guides="1" tooltips="1" connect="1" arrows="1" fold="1" page="1" pageScale="1" pageWidth="5000" pageHeight="5000" math="0" shadow="0">
      <root>
        <mxCell id="0" />
        <mxCell id="1" parent="0" />
        <mxCell id="zhcVx_HWICW13ROKuOu6-62" value="Dependents" style="shape=ext;margin=3;double=1;whiteSpace=wrap;html=1;align=center;" parent="1" vertex="1">
          <mxGeometry x="1030" y="700" width="100" height="40" as="geometry" />
        </mxCell>
        <mxCell id="zhcVx_HWICW13ROKuOu6-63" value="&lt;span style=&quot;border-bottom: 1px dotted&quot;&gt;DependantID&lt;/span&gt;" style="ellipse;whiteSpace=wrap;html=1;align=center;" parent="1" vertex="1">
          <mxGeometry x="890" y="700" width="100" height="40" as="geometry" />
        </mxCell>
        <mxCell id="zhcVx_HWICW13ROKuOu6-64" value="Name" style="ellipse;whiteSpace=wrap;html=1;align=center;" parent="1" vertex="1">
          <mxGeometry x="980" y="620" width="100" height="40" as="geometry" />
        </mxCell>
        <mxCell id="zhcVx_HWICW13ROKuOu6-65" value="First" style="ellipse;whiteSpace=wrap;html=1;align=center;" parent="1" vertex="1">
          <mxGeometry x="890" y="550" width="100" height="40" as="geometry" />
        </mxCell>
        <mxCell id="zhcVx_HWICW13ROKuOu6-66" value="Last" style="ellipse;whiteSpace=wrap;html=1;align=center;" parent="1" vertex="1">
          <mxGeometry x="1070" y="550" width="100" height="40" as="geometry" />
        </mxCell>
        <mxCell id="zhcVx_HWICW13ROKuOu6-68" value="Gender" style="ellipse;whiteSpace=wrap;html=1;align=center;" parent="1" vertex="1">
          <mxGeometry x="1120" y="620" width="100" height="40" as="geometry" />
        </mxCell>
        <mxCell id="zhcVx_HWICW13ROKuOu6-69" value="BirthDate" style="ellipse;whiteSpace=wrap;html=1;align=center;" parent="1" vertex="1">
          <mxGeometry x="1170" y="700" width="100" height="40" as="geometry" />
        </mxCell>
        <mxCell id="zhcVx_HWICW13ROKuOu6-70" value="" style="endArrow=none;html=1;rounded=0;entryX=0.5;entryY=0;entryDx=0;entryDy=0;exitX=0.5;exitY=1;exitDx=0;exitDy=0;" parent="1" source="zhcVx_HWICW13ROKuOu6-66" target="zhcVx_HWICW13ROKuOu6-64" edge="1">
          <mxGeometry width="50" height="50" relative="1" as="geometry">
            <mxPoint x="1090" y="760" as="sourcePoint" />
            <mxPoint x="1140" y="710" as="targetPoint" />
          </mxGeometry>
        </mxCell>
        <mxCell id="zhcVx_HWICW13ROKuOu6-71" value="" style="endArrow=none;html=1;rounded=0;entryX=0.5;entryY=1;entryDx=0;entryDy=0;exitX=0.5;exitY=0;exitDx=0;exitDy=0;" parent="1" source="zhcVx_HWICW13ROKuOu6-64" target="zhcVx_HWICW13ROKuOu6-65" edge="1">
          <mxGeometry width="50" height="50" relative="1" as="geometry">
            <mxPoint x="1090" y="760" as="sourcePoint" />
            <mxPoint x="1140" y="710" as="targetPoint" />
          </mxGeometry>
        </mxCell>
        <mxCell id="zhcVx_HWICW13ROKuOu6-72" value="" style="endArrow=none;html=1;rounded=0;entryX=0;entryY=0.5;entryDx=0;entryDy=0;exitX=1;exitY=0.5;exitDx=0;exitDy=0;" parent="1" source="zhcVx_HWICW13ROKuOu6-63" target="zhcVx_HWICW13ROKuOu6-62" edge="1">
          <mxGeometry width="50" height="50" relative="1" as="geometry">
            <mxPoint x="1090" y="760" as="sourcePoint" />
            <mxPoint x="1140" y="710" as="targetPoint" />
          </mxGeometry>
        </mxCell>
        <mxCell id="zhcVx_HWICW13ROKuOu6-73" value="" style="endArrow=none;html=1;rounded=0;entryX=0.5;entryY=1;entryDx=0;entryDy=0;exitX=0.5;exitY=0;exitDx=0;exitDy=0;" parent="1" source="zhcVx_HWICW13ROKuOu6-62" target="zhcVx_HWICW13ROKuOu6-64" edge="1">
          <mxGeometry width="50" height="50" relative="1" as="geometry">
            <mxPoint x="1090" y="760" as="sourcePoint" />
            <mxPoint x="1140" y="710" as="targetPoint" />
          </mxGeometry>
        </mxCell>
        <mxCell id="zhcVx_HWICW13ROKuOu6-74" value="" style="endArrow=none;html=1;rounded=0;entryX=0.5;entryY=1;entryDx=0;entryDy=0;exitX=0.5;exitY=0;exitDx=0;exitDy=0;" parent="1" source="zhcVx_HWICW13ROKuOu6-62" target="zhcVx_HWICW13ROKuOu6-68" edge="1">
          <mxGeometry width="50" height="50" relative="1" as="geometry">
            <mxPoint x="1090" y="760" as="sourcePoint" />
            <mxPoint x="1140" y="710" as="targetPoint" />
          </mxGeometry>
        </mxCell>
        <mxCell id="zhcVx_HWICW13ROKuOu6-75" value="" style="endArrow=none;html=1;rounded=0;entryX=0;entryY=0.5;entryDx=0;entryDy=0;exitX=1;exitY=0.5;exitDx=0;exitDy=0;" parent="1" source="zhcVx_HWICW13ROKuOu6-62" target="zhcVx_HWICW13ROKuOu6-69" edge="1">
          <mxGeometry width="50" height="50" relative="1" as="geometry">
            <mxPoint x="1090" y="760" as="sourcePoint" />
            <mxPoint x="1140" y="710" as="targetPoint" />
          </mxGeometry>
        </mxCell>
        <mxCell id="zhcVx_HWICW13ROKuOu6-76" value="Work Site" style="whiteSpace=wrap;html=1;align=center;" parent="1" vertex="1">
          <mxGeometry x="1220" y="1831" width="100" height="40" as="geometry" />
        </mxCell>
        <mxCell id="zhcVx_HWICW13ROKuOu6-78" value="SiteID" style="ellipse;whiteSpace=wrap;html=1;align=center;fontStyle=4;" parent="1" vertex="1">
          <mxGeometry x="1090" y="1781" width="100" height="40" as="geometry" />
        </mxCell>
        <mxCell id="zhcVx_HWICW13ROKuOu6-79" value="Address" style="ellipse;whiteSpace=wrap;html=1;align=center;" parent="1" vertex="1">
          <mxGeometry x="1090" y="1901" width="100" height="40" as="geometry" />
        </mxCell>
        <mxCell id="zhcVx_HWICW13ROKuOu6-80" value="" style="endArrow=none;html=1;rounded=0;entryX=0.5;entryY=1;entryDx=0;entryDy=0;exitX=0;exitY=0.5;exitDx=0;exitDy=0;" parent="1" source="zhcVx_HWICW13ROKuOu6-76" target="zhcVx_HWICW13ROKuOu6-78" edge="1">
          <mxGeometry width="50" height="50" relative="1" as="geometry">
            <mxPoint x="1320" y="1921" as="sourcePoint" />
            <mxPoint x="1370" y="1871" as="targetPoint" />
          </mxGeometry>
        </mxCell>
        <mxCell id="zhcVx_HWICW13ROKuOu6-81" value="" style="endArrow=none;html=1;rounded=0;entryX=0.5;entryY=0;entryDx=0;entryDy=0;exitX=0;exitY=0.5;exitDx=0;exitDy=0;" parent="1" source="zhcVx_HWICW13ROKuOu6-76" target="zhcVx_HWICW13ROKuOu6-79" edge="1">
          <mxGeometry width="50" height="50" relative="1" as="geometry">
            <mxPoint x="1270" y="1841" as="sourcePoint" />
            <mxPoint x="1190" y="1811" as="targetPoint" />
          </mxGeometry>
        </mxCell>
        <mxCell id="zhcVx_HWICW13ROKuOu6-82" value="Lab" style="whiteSpace=wrap;html=1;align=center;" parent="1" vertex="1">
          <mxGeometry x="800" y="1380" width="100" height="40" as="geometry" />
        </mxCell>
        <mxCell id="zhcVx_HWICW13ROKuOu6-83" value="LabID" style="ellipse;whiteSpace=wrap;html=1;align=center;fontStyle=4;" parent="1" vertex="1">
          <mxGeometry x="740" y="1310" width="100" height="40" as="geometry" />
        </mxCell>
        <mxCell id="zhcVx_HWICW13ROKuOu6-84" value="Address" style="ellipse;whiteSpace=wrap;html=1;align=center;" parent="1" vertex="1">
          <mxGeometry x="860" y="1310" width="100" height="40" as="geometry" />
        </mxCell>
        <mxCell id="zhcVx_HWICW13ROKuOu6-85" value="" style="endArrow=none;html=1;rounded=0;exitX=0.5;exitY=0;exitDx=0;exitDy=0;entryX=0.5;entryY=1;entryDx=0;entryDy=0;" parent="1" source="zhcVx_HWICW13ROKuOu6-82" target="zhcVx_HWICW13ROKuOu6-84" edge="1">
          <mxGeometry width="50" height="50" relative="1" as="geometry">
            <mxPoint x="830" y="1290" as="sourcePoint" />
            <mxPoint x="880" y="1240" as="targetPoint" />
          </mxGeometry>
        </mxCell>
        <mxCell id="zhcVx_HWICW13ROKuOu6-86" value="" style="endArrow=none;html=1;rounded=0;exitX=0.5;exitY=0;exitDx=0;exitDy=0;entryX=0.5;entryY=1;entryDx=0;entryDy=0;" parent="1" source="zhcVx_HWICW13ROKuOu6-82" target="zhcVx_HWICW13ROKuOu6-83" edge="1">
          <mxGeometry width="50" height="50" relative="1" as="geometry">
            <mxPoint x="830" y="1290" as="sourcePoint" />
            <mxPoint x="880" y="1240" as="targetPoint" />
          </mxGeometry>
        </mxCell>
        <mxCell id="zhcVx_HWICW13ROKuOu6-90" value="ContractDate" style="ellipse;whiteSpace=wrap;html=1;align=center;" parent="1" vertex="1">
          <mxGeometry x="540" y="1200" width="100" height="40" as="geometry" />
        </mxCell>
        <mxCell id="zhcVx_HWICW13ROKuOu6-92" value="ContractPDFs" style="ellipse;shape=doubleEllipse;margin=3;whiteSpace=wrap;html=1;align=center;" parent="1" vertex="1">
          <mxGeometry x="480" y="1250" width="100" height="40" as="geometry" />
        </mxCell>
        <mxCell id="zhcVx_HWICW13ROKuOu6-93" value="" style="endArrow=none;html=1;rounded=0;exitX=0.5;exitY=1;exitDx=0;exitDy=0;entryX=0;entryY=0.5;entryDx=0;entryDy=0;" parent="1" source="zhcVx_HWICW13ROKuOu6-90" edge="1">
          <mxGeometry width="50" height="50" relative="1" as="geometry">
            <mxPoint x="620" y="1110" as="sourcePoint" />
            <mxPoint x="640" y="1270" as="targetPoint" />
          </mxGeometry>
        </mxCell>
        <mxCell id="zhcVx_HWICW13ROKuOu6-94" value="" style="endArrow=none;html=1;rounded=0;entryX=0.5;entryY=0;entryDx=0;entryDy=0;exitX=0;exitY=0.5;exitDx=0;exitDy=0;" parent="1" target="DpSQirHrr8RSOz0LgGYw-4" edge="1">
          <mxGeometry width="50" height="50" relative="1" as="geometry">
            <mxPoint x="640" y="1270" as="sourcePoint" />
            <mxPoint x="580" y="1300" as="targetPoint" />
          </mxGeometry>
        </mxCell>
        <mxCell id="zhcVx_HWICW13ROKuOu6-95" value="" style="endArrow=none;html=1;rounded=0;exitX=1;exitY=0.5;exitDx=0;exitDy=0;entryX=0;entryY=0.5;entryDx=0;entryDy=0;" parent="1" source="zhcVx_HWICW13ROKuOu6-92" edge="1">
          <mxGeometry width="50" height="50" relative="1" as="geometry">
            <mxPoint x="620" y="1140" as="sourcePoint" />
            <mxPoint x="640" y="1270" as="targetPoint" />
          </mxGeometry>
        </mxCell>
        <mxCell id="zhcVx_HWICW13ROKuOu6-98" value="RequestDate" style="ellipse;whiteSpace=wrap;html=1;align=center;" parent="1" vertex="1">
          <mxGeometry x="940" y="820" width="100" height="40" as="geometry" />
        </mxCell>
        <mxCell id="zhcVx_HWICW13ROKuOu6-99" value="Location" style="ellipse;whiteSpace=wrap;html=1;align=center;" parent="1" vertex="1">
          <mxGeometry x="750" y="875" width="100" height="40" as="geometry" />
        </mxCell>
        <mxCell id="zhcVx_HWICW13ROKuOu6-100" value="Defects" style="ellipse;shape=doubleEllipse;margin=3;whiteSpace=wrap;html=1;align=center;" parent="1" vertex="1">
          <mxGeometry x="750" y="945" width="100" height="40" as="geometry" />
        </mxCell>
        <mxCell id="zhcVx_HWICW13ROKuOu6-101" value="" style="endArrow=none;html=1;rounded=0;exitX=0.5;exitY=0;exitDx=0;exitDy=0;entryX=0.5;entryY=1;entryDx=0;entryDy=0;" parent="1" edge="1">
          <mxGeometry width="50" height="50" relative="1" as="geometry">
            <mxPoint x="919.9999999999995" y="910" as="sourcePoint" />
            <mxPoint x="859.9999999999995" y="860" as="targetPoint" />
          </mxGeometry>
        </mxCell>
        <mxCell id="zhcVx_HWICW13ROKuOu6-102" value="" style="endArrow=none;html=1;rounded=0;exitX=0.5;exitY=0;exitDx=0;exitDy=0;entryX=0.5;entryY=1;entryDx=0;entryDy=0;" parent="1" target="zhcVx_HWICW13ROKuOu6-98" edge="1">
          <mxGeometry width="50" height="50" relative="1" as="geometry">
            <mxPoint x="919.9999999999995" y="910" as="sourcePoint" />
            <mxPoint x="870" y="870" as="targetPoint" />
          </mxGeometry>
        </mxCell>
        <mxCell id="zhcVx_HWICW13ROKuOu6-103" value="" style="endArrow=none;html=1;rounded=0;exitX=0;exitY=0.5;exitDx=0;exitDy=0;entryX=1;entryY=0.5;entryDx=0;entryDy=0;" parent="1" target="zhcVx_HWICW13ROKuOu6-99" edge="1">
          <mxGeometry width="50" height="50" relative="1" as="geometry">
            <mxPoint x="869.9999999999995" y="930" as="sourcePoint" />
            <mxPoint x="750" y="865" as="targetPoint" />
          </mxGeometry>
        </mxCell>
        <mxCell id="zhcVx_HWICW13ROKuOu6-104" value="" style="endArrow=none;html=1;rounded=0;exitX=0;exitY=0.5;exitDx=0;exitDy=0;entryX=1;entryY=0.5;entryDx=0;entryDy=0;" parent="1" target="zhcVx_HWICW13ROKuOu6-100" edge="1">
          <mxGeometry width="50" height="50" relative="1" as="geometry">
            <mxPoint x="869.9999999999995" y="930" as="sourcePoint" />
            <mxPoint x="760" y="905" as="targetPoint" />
          </mxGeometry>
        </mxCell>
        <mxCell id="zhcVx_HWICW13ROKuOu6-106" value="Employee" style="whiteSpace=wrap;html=1;align=center;" parent="1" vertex="1">
          <mxGeometry x="1320" y="1020" width="100" height="40" as="geometry" />
        </mxCell>
        <mxCell id="zhcVx_HWICW13ROKuOu6-107" value="Address" style="ellipse;whiteSpace=wrap;html=1;align=center;" parent="1" vertex="1">
          <mxGeometry x="1460" y="1070" width="100" height="40" as="geometry" />
        </mxCell>
        <mxCell id="zhcVx_HWICW13ROKuOu6-108" value="EmployeeID" style="ellipse;whiteSpace=wrap;html=1;align=center;fontStyle=4;" parent="1" vertex="1">
          <mxGeometry x="1540" y="920" width="100" height="40" as="geometry" />
        </mxCell>
        <mxCell id="zhcVx_HWICW13ROKuOu6-109" value="BirthDate" style="ellipse;whiteSpace=wrap;html=1;align=center;" parent="1" vertex="1">
          <mxGeometry x="1460" y="1120" width="100" height="40" as="geometry" />
        </mxCell>
        <mxCell id="zhcVx_HWICW13ROKuOu6-110" value="Age" style="ellipse;whiteSpace=wrap;html=1;align=center;dashed=1;" parent="1" vertex="1">
          <mxGeometry x="1570" y="1060" width="100" height="40" as="geometry" />
        </mxCell>
        <mxCell id="zhcVx_HWICW13ROKuOu6-111" value="Age" style="ellipse;whiteSpace=wrap;html=1;align=center;dashed=1;" parent="1" vertex="1">
          <mxGeometry x="1170" y="760" width="100" height="40" as="geometry" />
        </mxCell>
        <mxCell id="zhcVx_HWICW13ROKuOu6-112" value="" style="endArrow=none;html=1;rounded=0;entryX=1;entryY=0.5;entryDx=0;entryDy=0;exitX=0;exitY=0.5;exitDx=0;exitDy=0;" parent="1" source="zhcVx_HWICW13ROKuOu6-111" target="zhcVx_HWICW13ROKuOu6-62" edge="1">
          <mxGeometry width="50" height="50" relative="1" as="geometry">
            <mxPoint x="1230" y="840" as="sourcePoint" />
            <mxPoint x="1280" y="790" as="targetPoint" />
          </mxGeometry>
        </mxCell>
        <mxCell id="zhcVx_HWICW13ROKuOu6-114" value="Contact&lt;br&gt;Information" style="ellipse;shape=doubleEllipse;margin=3;whiteSpace=wrap;html=1;align=center;" parent="1" vertex="1">
          <mxGeometry x="1530" y="860" width="100" height="40" as="geometry" />
        </mxCell>
        <mxCell id="zhcVx_HWICW13ROKuOu6-115" value="SSN" style="ellipse;whiteSpace=wrap;html=1;align=center;" parent="1" vertex="1">
          <mxGeometry x="1520" y="1010" width="100" height="40" as="geometry" />
        </mxCell>
        <mxCell id="zhcVx_HWICW13ROKuOu6-116" value="Hire Date" style="ellipse;whiteSpace=wrap;html=1;align=center;" parent="1" vertex="1">
          <mxGeometry x="1320" y="920" width="100" height="40" as="geometry" />
        </mxCell>
        <mxCell id="zhcVx_HWICW13ROKuOu6-117" value="Salary" style="ellipse;whiteSpace=wrap;html=1;align=center;" parent="1" vertex="1">
          <mxGeometry x="1390" y="850" width="100" height="40" as="geometry" />
        </mxCell>
        <mxCell id="zhcVx_HWICW13ROKuOu6-118" value="Gender" style="ellipse;whiteSpace=wrap;html=1;align=center;" parent="1" vertex="1">
          <mxGeometry x="1480" y="970" width="100" height="40" as="geometry" />
        </mxCell>
        <mxCell id="zhcVx_HWICW13ROKuOu6-119" value="Name" style="ellipse;whiteSpace=wrap;html=1;align=center;" parent="1" vertex="1">
          <mxGeometry x="1210" y="920" width="100" height="40" as="geometry" />
        </mxCell>
        <mxCell id="zhcVx_HWICW13ROKuOu6-120" value="First" style="ellipse;whiteSpace=wrap;html=1;align=center;" parent="1" vertex="1">
          <mxGeometry x="1150" y="850" width="100" height="40" as="geometry" />
        </mxCell>
        <mxCell id="zhcVx_HWICW13ROKuOu6-121" value="Last" style="ellipse;whiteSpace=wrap;html=1;align=center;" parent="1" vertex="1">
          <mxGeometry x="1270" y="850" width="100" height="40" as="geometry" />
        </mxCell>
        <mxCell id="zhcVx_HWICW13ROKuOu6-123" value="" style="endArrow=none;html=1;rounded=0;exitX=0.5;exitY=0;exitDx=0;exitDy=0;entryX=0.5;entryY=1;entryDx=0;entryDy=0;" parent="1" source="zhcVx_HWICW13ROKuOu6-119" target="zhcVx_HWICW13ROKuOu6-121" edge="1">
          <mxGeometry width="50" height="50" relative="1" as="geometry">
            <mxPoint x="1440" y="940" as="sourcePoint" />
            <mxPoint x="1490" y="890" as="targetPoint" />
          </mxGeometry>
        </mxCell>
        <mxCell id="zhcVx_HWICW13ROKuOu6-124" value="" style="endArrow=none;html=1;rounded=0;exitX=0.5;exitY=0;exitDx=0;exitDy=0;entryX=0.5;entryY=1;entryDx=0;entryDy=0;" parent="1" source="zhcVx_HWICW13ROKuOu6-119" target="zhcVx_HWICW13ROKuOu6-120" edge="1">
          <mxGeometry width="50" height="50" relative="1" as="geometry">
            <mxPoint x="1270" y="930" as="sourcePoint" />
            <mxPoint x="1330" y="900" as="targetPoint" />
          </mxGeometry>
        </mxCell>
        <mxCell id="zhcVx_HWICW13ROKuOu6-125" value="" style="endArrow=none;html=1;rounded=0;entryX=1;entryY=1;entryDx=0;entryDy=0;exitX=0.5;exitY=0;exitDx=0;exitDy=0;" parent="1" source="zhcVx_HWICW13ROKuOu6-106" target="zhcVx_HWICW13ROKuOu6-119" edge="1">
          <mxGeometry width="50" height="50" relative="1" as="geometry">
            <mxPoint x="1430" y="1120" as="sourcePoint" />
            <mxPoint x="1480" y="1070" as="targetPoint" />
          </mxGeometry>
        </mxCell>
        <mxCell id="zhcVx_HWICW13ROKuOu6-126" value="" style="endArrow=none;html=1;rounded=0;entryX=0.5;entryY=1;entryDx=0;entryDy=0;exitX=0.5;exitY=0;exitDx=0;exitDy=0;" parent="1" source="zhcVx_HWICW13ROKuOu6-106" target="zhcVx_HWICW13ROKuOu6-116" edge="1">
          <mxGeometry width="50" height="50" relative="1" as="geometry">
            <mxPoint x="1380" y="1030" as="sourcePoint" />
            <mxPoint x="1305" y="964" as="targetPoint" />
          </mxGeometry>
        </mxCell>
        <mxCell id="zhcVx_HWICW13ROKuOu6-127" value="" style="endArrow=none;html=1;rounded=0;entryX=1;entryY=1;entryDx=0;entryDy=0;exitX=0.5;exitY=0;exitDx=0;exitDy=0;" parent="1" source="zhcVx_HWICW13ROKuOu6-106" target="zhcVx_HWICW13ROKuOu6-117" edge="1">
          <mxGeometry width="50" height="50" relative="1" as="geometry">
            <mxPoint x="1380" y="990" as="sourcePoint" />
            <mxPoint x="1380" y="970" as="targetPoint" />
          </mxGeometry>
        </mxCell>
        <mxCell id="zhcVx_HWICW13ROKuOu6-128" value="" style="endArrow=none;html=1;rounded=0;entryX=0;entryY=0.5;entryDx=0;entryDy=0;exitX=1;exitY=0.5;exitDx=0;exitDy=0;" parent="1" source="zhcVx_HWICW13ROKuOu6-106" target="zhcVx_HWICW13ROKuOu6-118" edge="1">
          <mxGeometry width="50" height="50" relative="1" as="geometry">
            <mxPoint x="1380" y="1030" as="sourcePoint" />
            <mxPoint x="1455" y="964" as="targetPoint" />
          </mxGeometry>
        </mxCell>
        <mxCell id="zhcVx_HWICW13ROKuOu6-129" value="" style="endArrow=none;html=1;rounded=0;entryX=0;entryY=0.5;entryDx=0;entryDy=0;exitX=1;exitY=0.5;exitDx=0;exitDy=0;" parent="1" source="zhcVx_HWICW13ROKuOu6-106" target="zhcVx_HWICW13ROKuOu6-115" edge="1">
          <mxGeometry width="50" height="50" relative="1" as="geometry">
            <mxPoint x="1380" y="1030" as="sourcePoint" />
            <mxPoint x="1470" y="1000" as="targetPoint" />
          </mxGeometry>
        </mxCell>
        <mxCell id="zhcVx_HWICW13ROKuOu6-130" value="" style="endArrow=none;html=1;rounded=0;entryX=0;entryY=0.5;entryDx=0;entryDy=0;exitX=1;exitY=0.5;exitDx=0;exitDy=0;" parent="1" source="zhcVx_HWICW13ROKuOu6-106" target="zhcVx_HWICW13ROKuOu6-107" edge="1">
          <mxGeometry width="50" height="50" relative="1" as="geometry">
            <mxPoint x="1430" y="1050" as="sourcePoint" />
            <mxPoint x="1470" y="1050" as="targetPoint" />
          </mxGeometry>
        </mxCell>
        <mxCell id="zhcVx_HWICW13ROKuOu6-131" value="" style="endArrow=none;html=1;rounded=0;entryX=0;entryY=0.5;entryDx=0;entryDy=0;exitX=0.75;exitY=1;exitDx=0;exitDy=0;" parent="1" source="zhcVx_HWICW13ROKuOu6-106" target="zhcVx_HWICW13ROKuOu6-109" edge="1">
          <mxGeometry width="50" height="50" relative="1" as="geometry">
            <mxPoint x="1430" y="1050" as="sourcePoint" />
            <mxPoint x="1470" y="1100" as="targetPoint" />
          </mxGeometry>
        </mxCell>
        <mxCell id="zhcVx_HWICW13ROKuOu6-132" value="" style="endArrow=none;html=1;rounded=0;exitX=0.5;exitY=1;exitDx=0;exitDy=0;" parent="1" source="zhcVx_HWICW13ROKuOu6-114" edge="1">
          <mxGeometry width="50" height="50" relative="1" as="geometry">
            <mxPoint x="1405" y="1070" as="sourcePoint" />
            <mxPoint x="1380" y="1020" as="targetPoint" />
          </mxGeometry>
        </mxCell>
        <mxCell id="zhcVx_HWICW13ROKuOu6-133" value="" style="endArrow=none;html=1;rounded=0;entryX=0.75;entryY=0;entryDx=0;entryDy=0;exitX=0;exitY=0.5;exitDx=0;exitDy=0;" parent="1" source="zhcVx_HWICW13ROKuOu6-108" target="zhcVx_HWICW13ROKuOu6-106" edge="1">
          <mxGeometry width="50" height="50" relative="1" as="geometry">
            <mxPoint x="1300" y="1000" as="sourcePoint" />
            <mxPoint x="1330" y="1050" as="targetPoint" />
          </mxGeometry>
        </mxCell>
        <mxCell id="zhcVx_HWICW13ROKuOu6-134" value="" style="endArrow=none;html=1;rounded=0;exitX=0;exitY=0.5;exitDx=0;exitDy=0;entryX=1;entryY=0.5;entryDx=0;entryDy=0;" parent="1" source="zhcVx_HWICW13ROKuOu6-110" target="zhcVx_HWICW13ROKuOu6-106" edge="1">
          <mxGeometry width="50" height="50" relative="1" as="geometry">
            <mxPoint x="1270" y="1020" as="sourcePoint" />
            <mxPoint x="1320" y="970" as="targetPoint" />
          </mxGeometry>
        </mxCell>
        <mxCell id="zhcVx_HWICW13ROKuOu6-135" value="Engineer" style="whiteSpace=wrap;html=1;align=center;" parent="1" vertex="1">
          <mxGeometry x="1320" y="1541" width="100" height="40" as="geometry" />
        </mxCell>
        <mxCell id="zhcVx_HWICW13ROKuOu6-139" value="d" style="ellipse;whiteSpace=wrap;html=1;aspect=fixed;" parent="1" vertex="1">
          <mxGeometry x="1360" y="1260" width="20" height="20" as="geometry" />
        </mxCell>
        <mxCell id="zhcVx_HWICW13ROKuOu6-141" value="" style="endArrow=none;html=1;rounded=0;entryX=0.5;entryY=1;entryDx=0;entryDy=0;exitX=0.5;exitY=0;exitDx=0;exitDy=0;" parent="1" source="zhcVx_HWICW13ROKuOu6-135" target="zhcVx_HWICW13ROKuOu6-139" edge="1">
          <mxGeometry width="50" height="50" relative="1" as="geometry">
            <mxPoint x="1430" y="1280" as="sourcePoint" />
            <mxPoint x="1480" y="1230" as="targetPoint" />
          </mxGeometry>
        </mxCell>
        <mxCell id="zhcVx_HWICW13ROKuOu6-143" value="Worker" style="whiteSpace=wrap;html=1;align=center;" parent="1" vertex="1">
          <mxGeometry x="1430" y="1541" width="100" height="40" as="geometry" />
        </mxCell>
        <mxCell id="zhcVx_HWICW13ROKuOu6-144" value="Lab Technicians" style="whiteSpace=wrap;html=1;align=center;" parent="1" vertex="1">
          <mxGeometry x="1160" y="1380" width="100" height="40" as="geometry" />
        </mxCell>
        <mxCell id="zhcVx_HWICW13ROKuOu6-145" value="HR" style="whiteSpace=wrap;html=1;align=center;" parent="1" vertex="1">
          <mxGeometry x="1470" y="1250" width="100" height="40" as="geometry" />
        </mxCell>
        <mxCell id="zhcVx_HWICW13ROKuOu6-146" value="Security" style="whiteSpace=wrap;html=1;align=center;" parent="1" vertex="1">
          <mxGeometry x="1200" y="1541" width="100" height="40" as="geometry" />
        </mxCell>
        <mxCell id="zhcVx_HWICW13ROKuOu6-147" value="Lawyer" style="whiteSpace=wrap;html=1;align=center;" parent="1" vertex="1">
          <mxGeometry x="1190" y="1250" width="100" height="40" as="geometry" />
        </mxCell>
        <mxCell id="zhcVx_HWICW13ROKuOu6-148" value="Accountant" style="whiteSpace=wrap;html=1;align=center;" parent="1" vertex="1">
          <mxGeometry x="1484" y="1330" width="100" height="40" as="geometry" />
        </mxCell>
        <mxCell id="zhcVx_HWICW13ROKuOu6-149" value="" style="endArrow=none;html=1;rounded=0;exitX=0;exitY=0.5;exitDx=0;exitDy=0;entryX=1;entryY=0.5;entryDx=0;entryDy=0;" parent="1" source="zhcVx_HWICW13ROKuOu6-148" target="zhcVx_HWICW13ROKuOu6-139" edge="1">
          <mxGeometry relative="1" as="geometry">
            <mxPoint x="1330" y="1270" as="sourcePoint" />
            <mxPoint x="1490" y="1270" as="targetPoint" />
          </mxGeometry>
        </mxCell>
        <mxCell id="zhcVx_HWICW13ROKuOu6-150" value="" style="endArrow=none;html=1;rounded=0;exitX=1;exitY=1;exitDx=0;exitDy=0;entryX=0.5;entryY=0;entryDx=0;entryDy=0;" parent="1" source="zhcVx_HWICW13ROKuOu6-139" target="zhcVx_HWICW13ROKuOu6-143" edge="1">
          <mxGeometry relative="1" as="geometry">
            <mxPoint x="1270" y="1350" as="sourcePoint" />
            <mxPoint x="1373" y="1287" as="targetPoint" />
          </mxGeometry>
        </mxCell>
        <mxCell id="zhcVx_HWICW13ROKuOu6-151" value="" style="endArrow=none;html=1;rounded=0;entryX=0;entryY=0.5;entryDx=0;entryDy=0;exitX=1;exitY=0;exitDx=0;exitDy=0;" parent="1" source="zhcVx_HWICW13ROKuOu6-139" target="zhcVx_HWICW13ROKuOu6-145" edge="1">
          <mxGeometry relative="1" as="geometry">
            <mxPoint x="1400" y="1200" as="sourcePoint" />
            <mxPoint x="1490" y="1350" as="targetPoint" />
          </mxGeometry>
        </mxCell>
        <mxCell id="zhcVx_HWICW13ROKuOu6-152" value="" style="endArrow=none;html=1;rounded=0;exitX=1;exitY=0.5;exitDx=0;exitDy=0;entryX=0;entryY=0.5;entryDx=0;entryDy=0;" parent="1" source="zhcVx_HWICW13ROKuOu6-144" target="zhcVx_HWICW13ROKuOu6-139" edge="1">
          <mxGeometry relative="1" as="geometry">
            <mxPoint x="1390" y="1280" as="sourcePoint" />
            <mxPoint x="1487" y="1311" as="targetPoint" />
          </mxGeometry>
        </mxCell>
        <mxCell id="zhcVx_HWICW13ROKuOu6-153" value="" style="endArrow=none;html=1;rounded=0;exitX=1;exitY=0.5;exitDx=0;exitDy=0;entryX=0;entryY=0.5;entryDx=0;entryDy=0;" parent="1" source="zhcVx_HWICW13ROKuOu6-147" target="zhcVx_HWICW13ROKuOu6-139" edge="1">
          <mxGeometry relative="1" as="geometry">
            <mxPoint x="1270" y="1310" as="sourcePoint" />
            <mxPoint x="1340" y="1230" as="targetPoint" />
          </mxGeometry>
        </mxCell>
        <mxCell id="zhcVx_HWICW13ROKuOu6-154" value="" style="endArrow=none;html=1;rounded=0;exitX=0;exitY=1;exitDx=0;exitDy=0;entryX=0.5;entryY=0;entryDx=0;entryDy=0;" parent="1" source="zhcVx_HWICW13ROKuOu6-139" target="zhcVx_HWICW13ROKuOu6-146" edge="1">
          <mxGeometry relative="1" as="geometry">
            <mxPoint x="1280" y="1240" as="sourcePoint" />
            <mxPoint x="1373" y="1273" as="targetPoint" />
          </mxGeometry>
        </mxCell>
        <mxCell id="zhcVx_HWICW13ROKuOu6-155" value="Deploy" style="shape=rhombus;perimeter=rhombusPerimeter;whiteSpace=wrap;html=1;align=center;" parent="1" vertex="1">
          <mxGeometry x="1390" y="1651" width="120" height="60" as="geometry" />
        </mxCell>
        <mxCell id="zhcVx_HWICW13ROKuOu6-159" value="" style="shape=link;html=1;rounded=0;entryX=0.5;entryY=1;entryDx=0;entryDy=0;exitX=0.5;exitY=0;exitDx=0;exitDy=0;" parent="1" source="zhcVx_HWICW13ROKuOu6-139" target="zhcVx_HWICW13ROKuOu6-106" edge="1">
          <mxGeometry relative="1" as="geometry">
            <mxPoint x="1350" y="1170" as="sourcePoint" />
            <mxPoint x="1510" y="1170" as="targetPoint" />
          </mxGeometry>
        </mxCell>
        <mxCell id="zhcVx_HWICW13ROKuOu6-160" value="" style="resizable=0;html=1;whiteSpace=wrap;align=right;verticalAlign=bottom;" parent="zhcVx_HWICW13ROKuOu6-159" connectable="0" vertex="1">
          <mxGeometry x="1" relative="1" as="geometry" />
        </mxCell>
        <mxCell id="zhcVx_HWICW13ROKuOu6-163" value="" style="endArrow=none;html=1;rounded=0;exitX=0;exitY=0.5;exitDx=0;exitDy=0;entryX=0.5;entryY=1;entryDx=0;entryDy=0;" parent="1" source="zhcVx_HWICW13ROKuOu6-155" target="zhcVx_HWICW13ROKuOu6-135" edge="1">
          <mxGeometry relative="1" as="geometry">
            <mxPoint x="1350" y="1561" as="sourcePoint" />
            <mxPoint x="1510" y="1561" as="targetPoint" />
          </mxGeometry>
        </mxCell>
        <mxCell id="zhcVx_HWICW13ROKuOu6-164" value="1" style="resizable=0;html=1;whiteSpace=wrap;align=right;verticalAlign=bottom;" parent="zhcVx_HWICW13ROKuOu6-163" connectable="0" vertex="1">
          <mxGeometry x="1" relative="1" as="geometry">
            <mxPoint x="20" y="20" as="offset" />
          </mxGeometry>
        </mxCell>
        <mxCell id="zhcVx_HWICW13ROKuOu6-171" value="1" style="resizable=0;html=1;whiteSpace=wrap;align=right;verticalAlign=bottom;" parent="zhcVx_HWICW13ROKuOu6-163" connectable="0" vertex="1">
          <mxGeometry x="1" relative="1" as="geometry">
            <mxPoint x="-20" y="20" as="offset" />
          </mxGeometry>
        </mxCell>
        <mxCell id="zhcVx_HWICW13ROKuOu6-173" value="1" style="resizable=0;html=1;whiteSpace=wrap;align=right;verticalAlign=bottom;" parent="zhcVx_HWICW13ROKuOu6-163" connectable="0" vertex="1">
          <mxGeometry x="1" relative="1" as="geometry">
            <mxPoint x="-90" y="250" as="offset" />
          </mxGeometry>
        </mxCell>
        <mxCell id="zhcVx_HWICW13ROKuOu6-202" value="1" style="resizable=0;html=1;whiteSpace=wrap;align=right;verticalAlign=bottom;" parent="zhcVx_HWICW13ROKuOu6-163" connectable="0" vertex="1">
          <mxGeometry x="1" relative="1" as="geometry">
            <mxPoint x="150" y="-331" as="offset" />
          </mxGeometry>
        </mxCell>
        <mxCell id="zhcVx_HWICW13ROKuOu6-203" value="M" style="resizable=0;html=1;whiteSpace=wrap;align=right;verticalAlign=bottom;" parent="zhcVx_HWICW13ROKuOu6-163" connectable="0" vertex="1">
          <mxGeometry x="1" relative="1" as="geometry">
            <mxPoint x="20" y="-481" as="offset" />
          </mxGeometry>
        </mxCell>
        <mxCell id="zhcVx_HWICW13ROKuOu6-227" value="1" style="resizable=0;html=1;whiteSpace=wrap;align=right;verticalAlign=bottom;" parent="zhcVx_HWICW13ROKuOu6-163" connectable="0" vertex="1">
          <mxGeometry x="1" relative="1" as="geometry">
            <mxPoint x="-440" y="-451" as="offset" />
          </mxGeometry>
        </mxCell>
        <mxCell id="zhcVx_HWICW13ROKuOu6-228" value="M" style="resizable=0;html=1;whiteSpace=wrap;align=right;verticalAlign=bottom;" parent="zhcVx_HWICW13ROKuOu6-163" connectable="0" vertex="1">
          <mxGeometry x="1" relative="1" as="geometry">
            <mxPoint x="-200" y="-341" as="offset" />
          </mxGeometry>
        </mxCell>
        <mxCell id="zhcVx_HWICW13ROKuOu6-229" value="M" style="resizable=0;html=1;whiteSpace=wrap;align=right;verticalAlign=bottom;" parent="zhcVx_HWICW13ROKuOu6-163" connectable="0" vertex="1">
          <mxGeometry x="1" relative="1" as="geometry">
            <mxPoint x="-470" y="-401" as="offset" />
          </mxGeometry>
        </mxCell>
        <mxCell id="zhcVx_HWICW13ROKuOu6-233" value="M" style="resizable=0;html=1;whiteSpace=wrap;align=right;verticalAlign=bottom;" parent="zhcVx_HWICW13ROKuOu6-163" connectable="0" vertex="1">
          <mxGeometry x="1" relative="1" as="geometry">
            <mxPoint x="-190" y="-281" as="offset" />
          </mxGeometry>
        </mxCell>
        <mxCell id="zhcVx_HWICW13ROKuOu6-234" value="M" style="resizable=0;html=1;whiteSpace=wrap;align=right;verticalAlign=bottom;" parent="zhcVx_HWICW13ROKuOu6-163" connectable="0" vertex="1">
          <mxGeometry x="1" relative="1" as="geometry">
            <mxPoint x="-610" y="-291" as="offset" />
          </mxGeometry>
        </mxCell>
        <mxCell id="zhcVx_HWICW13ROKuOu6-238" value="M" style="resizable=0;html=1;whiteSpace=wrap;align=right;verticalAlign=bottom;" parent="zhcVx_HWICW13ROKuOu6-163" connectable="0" vertex="1">
          <mxGeometry x="1" relative="1" as="geometry">
            <mxPoint x="-610" y="-321" as="offset" />
          </mxGeometry>
        </mxCell>
        <mxCell id="zhcVx_HWICW13ROKuOu6-239" value="1" style="resizable=0;html=1;whiteSpace=wrap;align=right;verticalAlign=bottom;" parent="zhcVx_HWICW13ROKuOu6-163" connectable="0" vertex="1">
          <mxGeometry x="1" relative="1" as="geometry">
            <mxPoint x="-220" y="-301" as="offset" />
          </mxGeometry>
        </mxCell>
        <mxCell id="nu0V4V_Gl1b4eorJf1zw-17" value="1" style="resizable=0;html=1;whiteSpace=wrap;align=right;verticalAlign=bottom;" parent="zhcVx_HWICW13ROKuOu6-163" connectable="0" vertex="1">
          <mxGeometry x="1" relative="1" as="geometry">
            <mxPoint x="230" y="-211" as="offset" />
          </mxGeometry>
        </mxCell>
        <mxCell id="nu0V4V_Gl1b4eorJf1zw-19" value="M" style="resizable=0;html=1;whiteSpace=wrap;align=right;verticalAlign=bottom;" parent="zhcVx_HWICW13ROKuOu6-163" connectable="0" vertex="1">
          <mxGeometry x="1" relative="1" as="geometry">
            <mxPoint x="30" y="-501" as="offset" />
          </mxGeometry>
        </mxCell>
        <mxCell id="nu0V4V_Gl1b4eorJf1zw-27" value="1" style="resizable=0;html=1;whiteSpace=wrap;align=right;verticalAlign=bottom;" parent="zhcVx_HWICW13ROKuOu6-163" connectable="0" vertex="1">
          <mxGeometry x="1" relative="1" as="geometry">
            <mxPoint x="-70" y="-531" as="offset" />
          </mxGeometry>
        </mxCell>
        <mxCell id="nu0V4V_Gl1b4eorJf1zw-28" value="M" style="resizable=0;html=1;whiteSpace=wrap;align=right;verticalAlign=bottom;" parent="zhcVx_HWICW13ROKuOu6-163" connectable="0" vertex="1">
          <mxGeometry x="1" relative="1" as="geometry">
            <mxPoint x="-370" y="-641" as="offset" />
          </mxGeometry>
        </mxCell>
        <mxCell id="nu0V4V_Gl1b4eorJf1zw-32" value="M" style="resizable=0;html=1;whiteSpace=wrap;align=right;verticalAlign=bottom;" parent="zhcVx_HWICW13ROKuOu6-163" connectable="0" vertex="1">
          <mxGeometry x="1" relative="1" as="geometry">
            <mxPoint x="-420" y="-611" as="offset" />
          </mxGeometry>
        </mxCell>
        <mxCell id="nu0V4V_Gl1b4eorJf1zw-33" value="1" style="resizable=0;html=1;whiteSpace=wrap;align=right;verticalAlign=bottom;" parent="zhcVx_HWICW13ROKuOu6-163" connectable="0" vertex="1">
          <mxGeometry x="1" relative="1" as="geometry">
            <mxPoint x="-460" y="-461" as="offset" />
          </mxGeometry>
        </mxCell>
        <mxCell id="nu0V4V_Gl1b4eorJf1zw-37" value="1" style="resizable=0;html=1;whiteSpace=wrap;align=right;verticalAlign=bottom;" parent="zhcVx_HWICW13ROKuOu6-163" connectable="0" vertex="1">
          <mxGeometry x="1" relative="1" as="geometry">
            <mxPoint x="-50" y="-571" as="offset" />
          </mxGeometry>
        </mxCell>
        <mxCell id="nu0V4V_Gl1b4eorJf1zw-38" value="M" style="resizable=0;html=1;whiteSpace=wrap;align=right;verticalAlign=bottom;" parent="zhcVx_HWICW13ROKuOu6-163" connectable="0" vertex="1">
          <mxGeometry x="1" relative="1" as="geometry">
            <mxPoint x="-270" y="-821" as="offset" />
          </mxGeometry>
        </mxCell>
        <mxCell id="nu0V4V_Gl1b4eorJf1zw-42" value="1" style="resizable=0;html=1;whiteSpace=wrap;align=right;verticalAlign=bottom;" parent="zhcVx_HWICW13ROKuOu6-163" connectable="0" vertex="1">
          <mxGeometry x="1" relative="1" as="geometry">
            <mxPoint x="-20" y="-431" as="offset" />
          </mxGeometry>
        </mxCell>
        <mxCell id="nu0V4V_Gl1b4eorJf1zw-43" value="1" style="resizable=0;html=1;whiteSpace=wrap;align=right;verticalAlign=bottom;" parent="zhcVx_HWICW13ROKuOu6-163" connectable="0" vertex="1">
          <mxGeometry x="1" relative="1" as="geometry">
            <mxPoint x="-430" y="-431" as="offset" />
          </mxGeometry>
        </mxCell>
        <mxCell id="nu0V4V_Gl1b4eorJf1zw-68" value="M" style="resizable=0;html=1;whiteSpace=wrap;align=right;verticalAlign=bottom;" parent="zhcVx_HWICW13ROKuOu6-163" connectable="0" vertex="1">
          <mxGeometry x="1" relative="1" as="geometry">
            <mxPoint x="-560" y="-451" as="offset" />
          </mxGeometry>
        </mxCell>
        <mxCell id="nu0V4V_Gl1b4eorJf1zw-69" value="M" style="resizable=0;html=1;whiteSpace=wrap;align=right;verticalAlign=bottom;" parent="zhcVx_HWICW13ROKuOu6-163" connectable="0" vertex="1">
          <mxGeometry x="1" relative="1" as="geometry">
            <mxPoint x="-980" y="-541" as="offset" />
          </mxGeometry>
        </mxCell>
        <mxCell id="nu0V4V_Gl1b4eorJf1zw-79" value="1" style="resizable=0;html=1;whiteSpace=wrap;align=right;verticalAlign=bottom;" parent="zhcVx_HWICW13ROKuOu6-163" connectable="0" vertex="1">
          <mxGeometry x="1" relative="1" as="geometry">
            <mxPoint x="-420" y="-421" as="offset" />
          </mxGeometry>
        </mxCell>
        <mxCell id="nu0V4V_Gl1b4eorJf1zw-80" value="M" style="resizable=0;html=1;whiteSpace=wrap;align=right;verticalAlign=bottom;" parent="zhcVx_HWICW13ROKuOu6-163" connectable="0" vertex="1">
          <mxGeometry x="1" relative="1" as="geometry">
            <mxPoint x="-10" y="-381" as="offset" />
          </mxGeometry>
        </mxCell>
        <mxCell id="zhcVx_HWICW13ROKuOu6-165" value="" style="endArrow=none;html=1;rounded=0;exitX=1;exitY=0.5;exitDx=0;exitDy=0;entryX=0.5;entryY=1;entryDx=0;entryDy=0;" parent="1" source="zhcVx_HWICW13ROKuOu6-155" target="zhcVx_HWICW13ROKuOu6-143" edge="1">
          <mxGeometry relative="1" as="geometry">
            <mxPoint x="1350" y="1561" as="sourcePoint" />
            <mxPoint x="1510" y="1561" as="targetPoint" />
          </mxGeometry>
        </mxCell>
        <mxCell id="zhcVx_HWICW13ROKuOu6-166" value="M" style="resizable=0;html=1;whiteSpace=wrap;align=right;verticalAlign=bottom;" parent="zhcVx_HWICW13ROKuOu6-165" connectable="0" vertex="1">
          <mxGeometry x="1" relative="1" as="geometry">
            <mxPoint x="-10" y="20" as="offset" />
          </mxGeometry>
        </mxCell>
        <mxCell id="zhcVx_HWICW13ROKuOu6-168" value="Responsable" style="shape=rhombus;perimeter=rhombusPerimeter;whiteSpace=wrap;html=1;align=center;" parent="1" vertex="1">
          <mxGeometry x="1210" y="1691" width="120" height="60" as="geometry" />
        </mxCell>
        <mxCell id="zhcVx_HWICW13ROKuOu6-170" value="" style="endArrow=none;html=1;rounded=0;exitX=0.5;exitY=0;exitDx=0;exitDy=0;" parent="1" source="zhcVx_HWICW13ROKuOu6-168" edge="1">
          <mxGeometry relative="1" as="geometry">
            <mxPoint x="1170" y="1681" as="sourcePoint" />
            <mxPoint x="1370" y="1581" as="targetPoint" />
          </mxGeometry>
        </mxCell>
        <mxCell id="zhcVx_HWICW13ROKuOu6-172" value="" style="endArrow=none;html=1;rounded=0;exitX=0.5;exitY=0;exitDx=0;exitDy=0;entryX=0.5;entryY=1;entryDx=0;entryDy=0;" parent="1" source="zhcVx_HWICW13ROKuOu6-76" target="zhcVx_HWICW13ROKuOu6-168" edge="1">
          <mxGeometry relative="1" as="geometry">
            <mxPoint x="1280" y="1761" as="sourcePoint" />
            <mxPoint x="1440" y="1761" as="targetPoint" />
          </mxGeometry>
        </mxCell>
        <mxCell id="zhcVx_HWICW13ROKuOu6-174" value="Work" style="shape=rhombus;perimeter=rhombusPerimeter;whiteSpace=wrap;html=1;align=center;" parent="1" vertex="1">
          <mxGeometry x="1530" y="1691" width="120" height="60" as="geometry" />
        </mxCell>
        <mxCell id="zhcVx_HWICW13ROKuOu6-178" value="" style="endArrow=none;html=1;rounded=0;exitX=0.5;exitY=1;exitDx=0;exitDy=0;entryX=1;entryY=0.5;entryDx=0;entryDy=0;" parent="1" source="zhcVx_HWICW13ROKuOu6-174" target="zhcVx_HWICW13ROKuOu6-76" edge="1">
          <mxGeometry relative="1" as="geometry">
            <mxPoint x="1600" y="1701" as="sourcePoint" />
            <mxPoint x="1490" y="1591" as="targetPoint" />
          </mxGeometry>
        </mxCell>
        <mxCell id="zhcVx_HWICW13ROKuOu6-180" value="M" style="resizable=0;html=1;whiteSpace=wrap;align=right;verticalAlign=bottom;" parent="zhcVx_HWICW13ROKuOu6-178" connectable="0" vertex="1">
          <mxGeometry x="1" relative="1" as="geometry">
            <mxPoint x="30" y="20" as="offset" />
          </mxGeometry>
        </mxCell>
        <mxCell id="zhcVx_HWICW13ROKuOu6-181" value="Assigned" style="shape=rhombus;perimeter=rhombusPerimeter;whiteSpace=wrap;html=1;align=center;" parent="1" vertex="1">
          <mxGeometry x="970" y="1340" width="120" height="60" as="geometry" />
        </mxCell>
        <mxCell id="zhcVx_HWICW13ROKuOu6-183" value="" style="endArrow=none;html=1;rounded=0;exitX=1;exitY=0.5;exitDx=0;exitDy=0;entryX=0;entryY=0.5;entryDx=0;entryDy=0;" parent="1" source="zhcVx_HWICW13ROKuOu6-82" target="zhcVx_HWICW13ROKuOu6-181" edge="1">
          <mxGeometry relative="1" as="geometry">
            <mxPoint x="1494" y="1590" as="sourcePoint" />
            <mxPoint x="1490" y="1490" as="targetPoint" />
          </mxGeometry>
        </mxCell>
        <mxCell id="zhcVx_HWICW13ROKuOu6-184" value="M" style="resizable=0;html=1;whiteSpace=wrap;align=right;verticalAlign=bottom;" parent="zhcVx_HWICW13ROKuOu6-183" connectable="0" vertex="1">
          <mxGeometry x="1" relative="1" as="geometry">
            <mxPoint x="-50" y="20" as="offset" />
          </mxGeometry>
        </mxCell>
        <mxCell id="zhcVx_HWICW13ROKuOu6-187" value="Manages" style="shape=rhombus;perimeter=rhombusPerimeter;whiteSpace=wrap;html=1;align=center;" parent="1" vertex="1">
          <mxGeometry x="970" y="1420" width="120" height="60" as="geometry" />
        </mxCell>
        <mxCell id="zhcVx_HWICW13ROKuOu6-190" value="" style="endArrow=none;html=1;rounded=0;entryX=1;entryY=0.5;entryDx=0;entryDy=0;" parent="1" target="zhcVx_HWICW13ROKuOu6-187" edge="1">
          <mxGeometry relative="1" as="geometry">
            <mxPoint x="1160" y="1400" as="sourcePoint" />
            <mxPoint x="980" y="1480" as="targetPoint" />
          </mxGeometry>
        </mxCell>
        <mxCell id="zhcVx_HWICW13ROKuOu6-191" value="1" style="resizable=0;html=1;whiteSpace=wrap;align=right;verticalAlign=bottom;" parent="zhcVx_HWICW13ROKuOu6-190" connectable="0" vertex="1">
          <mxGeometry x="1" relative="1" as="geometry">
            <mxPoint x="50" y="-10" as="offset" />
          </mxGeometry>
        </mxCell>
        <mxCell id="zhcVx_HWICW13ROKuOu6-192" value="Secures" style="shape=rhombus;perimeter=rhombusPerimeter;whiteSpace=wrap;html=1;align=center;" parent="1" vertex="1">
          <mxGeometry x="1100" y="1651" width="120" height="60" as="geometry" />
        </mxCell>
        <mxCell id="zhcVx_HWICW13ROKuOu6-198" value="Hire" style="shape=rhombus;perimeter=rhombusPerimeter;whiteSpace=wrap;html=1;align=center;" parent="1" vertex="1">
          <mxGeometry x="1380" y="1170" width="70" height="60" as="geometry" />
        </mxCell>
        <mxCell id="zhcVx_HWICW13ROKuOu6-199" value="" style="endArrow=none;html=1;rounded=0;exitX=0.5;exitY=1;exitDx=0;exitDy=0;entryX=0.5;entryY=0;entryDx=0;entryDy=0;" parent="1" source="zhcVx_HWICW13ROKuOu6-198" target="zhcVx_HWICW13ROKuOu6-145" edge="1">
          <mxGeometry relative="1" as="geometry">
            <mxPoint x="1500" y="1120" as="sourcePoint" />
            <mxPoint x="1660" y="1120" as="targetPoint" />
          </mxGeometry>
        </mxCell>
        <mxCell id="zhcVx_HWICW13ROKuOu6-201" value="" style="endArrow=none;html=1;rounded=0;entryX=0.471;entryY=0.079;entryDx=0;entryDy=0;exitX=0.5;exitY=1;exitDx=0;exitDy=0;entryPerimeter=0;" parent="1" source="zhcVx_HWICW13ROKuOu6-106" target="zhcVx_HWICW13ROKuOu6-198" edge="1">
          <mxGeometry relative="1" as="geometry">
            <mxPoint x="1500" y="1120" as="sourcePoint" />
            <mxPoint x="1660" y="1120" as="targetPoint" />
            <Array as="points" />
          </mxGeometry>
        </mxCell>
        <mxCell id="zhcVx_HWICW13ROKuOu6-209" value="Department" style="whiteSpace=wrap;html=1;align=center;" parent="1" vertex="1">
          <mxGeometry x="820" y="1120" width="100" height="40" as="geometry" />
        </mxCell>
        <mxCell id="zhcVx_HWICW13ROKuOu6-210" value="DepNumber" style="ellipse;whiteSpace=wrap;html=1;align=center;fontStyle=4;" parent="1" vertex="1">
          <mxGeometry x="710" y="1050" width="100" height="40" as="geometry" />
        </mxCell>
        <mxCell id="zhcVx_HWICW13ROKuOu6-212" value="DepName" style="ellipse;whiteSpace=wrap;html=1;align=center;" parent="1" vertex="1">
          <mxGeometry x="820" y="1030" width="100" height="40" as="geometry" />
        </mxCell>
        <mxCell id="zhcVx_HWICW13ROKuOu6-214" value="DepLocations" style="ellipse;shape=doubleEllipse;margin=3;whiteSpace=wrap;html=1;align=center;" parent="1" vertex="1">
          <mxGeometry x="670" y="1130" width="100" height="40" as="geometry" />
        </mxCell>
        <mxCell id="zhcVx_HWICW13ROKuOu6-215" value="" style="endArrow=none;html=1;rounded=0;exitX=0.5;exitY=0;exitDx=0;exitDy=0;entryX=0.5;entryY=1;entryDx=0;entryDy=0;" parent="1" source="zhcVx_HWICW13ROKuOu6-209" target="zhcVx_HWICW13ROKuOu6-212" edge="1">
          <mxGeometry relative="1" as="geometry">
            <mxPoint x="730" y="1030" as="sourcePoint" />
            <mxPoint x="890" y="1030" as="targetPoint" />
          </mxGeometry>
        </mxCell>
        <mxCell id="zhcVx_HWICW13ROKuOu6-216" value="" style="endArrow=none;html=1;rounded=0;exitX=1;exitY=1;exitDx=0;exitDy=0;entryX=0.5;entryY=0;entryDx=0;entryDy=0;" parent="1" source="zhcVx_HWICW13ROKuOu6-210" target="zhcVx_HWICW13ROKuOu6-209" edge="1">
          <mxGeometry relative="1" as="geometry">
            <mxPoint x="730" y="1030" as="sourcePoint" />
            <mxPoint x="780" y="1040" as="targetPoint" />
          </mxGeometry>
        </mxCell>
        <mxCell id="zhcVx_HWICW13ROKuOu6-217" value="" style="endArrow=none;html=1;rounded=0;exitX=0;exitY=0.5;exitDx=0;exitDy=0;entryX=1;entryY=0.5;entryDx=0;entryDy=0;" parent="1" source="zhcVx_HWICW13ROKuOu6-209" target="zhcVx_HWICW13ROKuOu6-214" edge="1">
          <mxGeometry relative="1" as="geometry">
            <mxPoint x="780" y="1060" as="sourcePoint" />
            <mxPoint x="780" y="1020" as="targetPoint" />
          </mxGeometry>
        </mxCell>
        <mxCell id="zhcVx_HWICW13ROKuOu6-218" value="Workes at" style="shape=rhombus;perimeter=rhombusPerimeter;whiteSpace=wrap;html=1;align=center;" parent="1" vertex="1">
          <mxGeometry x="1060" y="1080" width="120" height="60" as="geometry" />
        </mxCell>
        <mxCell id="zhcVx_HWICW13ROKuOu6-219" value="Number of Employees" style="ellipse;whiteSpace=wrap;html=1;align=center;dashed=1;" parent="1" vertex="1">
          <mxGeometry x="1070" y="1030" width="100" height="40" as="geometry" />
        </mxCell>
        <mxCell id="zhcVx_HWICW13ROKuOu6-220" value="" style="endArrow=none;html=1;rounded=0;exitX=0.5;exitY=1;exitDx=0;exitDy=0;entryX=0.5;entryY=0;entryDx=0;entryDy=0;" parent="1" source="zhcVx_HWICW13ROKuOu6-219" target="zhcVx_HWICW13ROKuOu6-218" edge="1">
          <mxGeometry relative="1" as="geometry">
            <mxPoint x="1040" y="1130" as="sourcePoint" />
            <mxPoint x="1200" y="1130" as="targetPoint" />
          </mxGeometry>
        </mxCell>
        <mxCell id="zhcVx_HWICW13ROKuOu6-222" value="" style="endArrow=none;html=1;rounded=0;entryX=1;entryY=0.25;entryDx=0;entryDy=0;exitX=0;exitY=0.5;exitDx=0;exitDy=0;" parent="1" source="zhcVx_HWICW13ROKuOu6-218" target="zhcVx_HWICW13ROKuOu6-209" edge="1">
          <mxGeometry relative="1" as="geometry">
            <mxPoint x="920" y="1150" as="sourcePoint" />
            <mxPoint x="770" y="1100" as="targetPoint" />
            <Array as="points" />
          </mxGeometry>
        </mxCell>
        <mxCell id="zhcVx_HWICW13ROKuOu6-223" value="Suggests" style="shape=rhombus;perimeter=rhombusPerimeter;whiteSpace=wrap;html=1;align=center;" parent="1" vertex="1">
          <mxGeometry x="980" y="1180" width="120" height="60" as="geometry" />
        </mxCell>
        <mxCell id="zhcVx_HWICW13ROKuOu6-224" value="" style="endArrow=none;html=1;rounded=0;exitX=1;exitY=0.5;exitDx=0;exitDy=0;entryX=0;entryY=0.5;entryDx=0;entryDy=0;" parent="1" source="zhcVx_HWICW13ROKuOu6-223" target="zhcVx_HWICW13ROKuOu6-147" edge="1">
          <mxGeometry relative="1" as="geometry">
            <mxPoint x="1000" y="1120" as="sourcePoint" />
            <mxPoint x="1160" y="1120" as="targetPoint" />
          </mxGeometry>
        </mxCell>
        <mxCell id="zhcVx_HWICW13ROKuOu6-225" value="" style="endArrow=none;html=1;rounded=0;exitX=0.5;exitY=1;exitDx=0;exitDy=0;entryX=0;entryY=0.5;entryDx=0;entryDy=0;" parent="1" source="zhcVx_HWICW13ROKuOu6-209" target="zhcVx_HWICW13ROKuOu6-223" edge="1">
          <mxGeometry relative="1" as="geometry">
            <mxPoint x="1110" y="1210" as="sourcePoint" />
            <mxPoint x="1180" y="1240" as="targetPoint" />
          </mxGeometry>
        </mxCell>
        <mxCell id="zhcVx_HWICW13ROKuOu6-230" value="Reviews" style="shape=rhombus;perimeter=rhombusPerimeter;whiteSpace=wrap;html=1;align=center;" parent="1" vertex="1">
          <mxGeometry x="960" y="1270" width="120" height="60" as="geometry" />
        </mxCell>
        <mxCell id="zhcVx_HWICW13ROKuOu6-231" value="" style="endArrow=none;html=1;rounded=0;entryX=0;entryY=0.5;entryDx=0;entryDy=0;exitX=1;exitY=0.5;exitDx=0;exitDy=0;" parent="1" source="zhcVx_HWICW13ROKuOu6-230" target="zhcVx_HWICW13ROKuOu6-147" edge="1">
          <mxGeometry relative="1" as="geometry">
            <mxPoint x="1170" y="1430" as="sourcePoint" />
            <mxPoint x="1330" y="1430" as="targetPoint" />
          </mxGeometry>
        </mxCell>
        <mxCell id="zhcVx_HWICW13ROKuOu6-232" value="" style="endArrow=none;html=1;rounded=0;exitX=1;exitY=0.5;exitDx=0;exitDy=0;entryX=0;entryY=0.5;entryDx=0;entryDy=0;" parent="1" target="zhcVx_HWICW13ROKuOu6-230" edge="1">
          <mxGeometry relative="1" as="geometry">
            <mxPoint x="740" y="1270" as="sourcePoint" />
            <mxPoint x="810" y="1170" as="targetPoint" />
          </mxGeometry>
        </mxCell>
        <mxCell id="zhcVx_HWICW13ROKuOu6-235" value="Write" style="shape=rhombus;perimeter=rhombusPerimeter;whiteSpace=wrap;html=1;align=center;" parent="1" vertex="1">
          <mxGeometry x="870" y="1210" width="120" height="60" as="geometry" />
        </mxCell>
        <mxCell id="zhcVx_HWICW13ROKuOu6-236" value="" style="endArrow=none;html=1;rounded=0;exitX=1;exitY=0.5;exitDx=0;exitDy=0;entryX=0;entryY=0.5;entryDx=0;entryDy=0;" parent="1" source="zhcVx_HWICW13ROKuOu6-235" target="zhcVx_HWICW13ROKuOu6-147" edge="1">
          <mxGeometry relative="1" as="geometry">
            <mxPoint x="980" y="1290" as="sourcePoint" />
            <mxPoint x="1140" y="1290" as="targetPoint" />
          </mxGeometry>
        </mxCell>
        <mxCell id="zhcVx_HWICW13ROKuOu6-237" value="" style="endArrow=none;html=1;rounded=0;exitX=1;exitY=0.5;exitDx=0;exitDy=0;entryX=0;entryY=0.5;entryDx=0;entryDy=0;" parent="1" target="zhcVx_HWICW13ROKuOu6-235" edge="1">
          <mxGeometry relative="1" as="geometry">
            <mxPoint x="740" y="1270" as="sourcePoint" />
            <mxPoint x="1200" y="1280" as="targetPoint" />
          </mxGeometry>
        </mxCell>
        <mxCell id="nu0V4V_Gl1b4eorJf1zw-1" value="" style="shape=link;html=1;rounded=0;entryX=0;entryY=0.5;entryDx=0;entryDy=0;" parent="1" target="zhcVx_HWICW13ROKuOu6-144" edge="1">
          <mxGeometry relative="1" as="geometry">
            <mxPoint x="1090" y="1370" as="sourcePoint" />
            <mxPoint x="1270" y="1480" as="targetPoint" />
          </mxGeometry>
        </mxCell>
        <mxCell id="nu0V4V_Gl1b4eorJf1zw-2" value="N" style="resizable=0;html=1;whiteSpace=wrap;align=right;verticalAlign=bottom;" parent="nu0V4V_Gl1b4eorJf1zw-1" connectable="0" vertex="1">
          <mxGeometry x="1" relative="1" as="geometry">
            <mxPoint x="-10" y="-10" as="offset" />
          </mxGeometry>
        </mxCell>
        <mxCell id="nu0V4V_Gl1b4eorJf1zw-3" value="" style="shape=link;html=1;rounded=0;entryX=1;entryY=1;entryDx=0;entryDy=0;exitX=0;exitY=0.5;exitDx=0;exitDy=0;" parent="1" source="zhcVx_HWICW13ROKuOu6-187" target="zhcVx_HWICW13ROKuOu6-82" edge="1">
          <mxGeometry relative="1" as="geometry">
            <mxPoint x="1110" y="1480" as="sourcePoint" />
            <mxPoint x="1270" y="1480" as="targetPoint" />
          </mxGeometry>
        </mxCell>
        <mxCell id="nu0V4V_Gl1b4eorJf1zw-4" value="1" style="resizable=0;html=1;whiteSpace=wrap;align=right;verticalAlign=bottom;" parent="nu0V4V_Gl1b4eorJf1zw-3" connectable="0" vertex="1">
          <mxGeometry x="1" relative="1" as="geometry">
            <mxPoint x="20" y="30" as="offset" />
          </mxGeometry>
        </mxCell>
        <mxCell id="nu0V4V_Gl1b4eorJf1zw-5" value="" style="shape=link;html=1;rounded=0;entryX=0.5;entryY=1;entryDx=0;entryDy=0;exitX=0.5;exitY=0;exitDx=0;exitDy=0;" parent="1" source="zhcVx_HWICW13ROKuOu6-174" target="zhcVx_HWICW13ROKuOu6-143" edge="1">
          <mxGeometry relative="1" as="geometry">
            <mxPoint x="1600" y="1560.74" as="sourcePoint" />
            <mxPoint x="1760" y="1560.74" as="targetPoint" />
          </mxGeometry>
        </mxCell>
        <mxCell id="nu0V4V_Gl1b4eorJf1zw-6" value="N" style="resizable=0;html=1;whiteSpace=wrap;align=right;verticalAlign=bottom;" parent="nu0V4V_Gl1b4eorJf1zw-5" connectable="0" vertex="1">
          <mxGeometry x="1" relative="1" as="geometry">
            <mxPoint x="30" y="19" as="offset" />
          </mxGeometry>
        </mxCell>
        <mxCell id="nu0V4V_Gl1b4eorJf1zw-7" value="" style="shape=link;html=1;rounded=0;entryX=0.5;entryY=1;entryDx=0;entryDy=0;exitX=0.5;exitY=0;exitDx=0;exitDy=0;" parent="1" source="zhcVx_HWICW13ROKuOu6-192" target="zhcVx_HWICW13ROKuOu6-146" edge="1">
          <mxGeometry relative="1" as="geometry">
            <mxPoint x="1255" y="1691" as="sourcePoint" />
            <mxPoint x="1145" y="1581" as="targetPoint" />
          </mxGeometry>
        </mxCell>
        <mxCell id="nu0V4V_Gl1b4eorJf1zw-8" value="N" style="resizable=0;html=1;whiteSpace=wrap;align=right;verticalAlign=bottom;" parent="nu0V4V_Gl1b4eorJf1zw-7" connectable="0" vertex="1">
          <mxGeometry x="1" relative="1" as="geometry">
            <mxPoint x="20" y="19" as="offset" />
          </mxGeometry>
        </mxCell>
        <mxCell id="nu0V4V_Gl1b4eorJf1zw-9" value="" style="shape=link;html=1;rounded=0;exitX=0.5;exitY=1;exitDx=0;exitDy=0;" parent="1" source="zhcVx_HWICW13ROKuOu6-192" edge="1">
          <mxGeometry relative="1" as="geometry">
            <mxPoint x="1080" y="1680" as="sourcePoint" />
            <mxPoint x="1270" y="1830" as="targetPoint" />
          </mxGeometry>
        </mxCell>
        <mxCell id="nu0V4V_Gl1b4eorJf1zw-10" value="N" style="resizable=0;html=1;whiteSpace=wrap;align=right;verticalAlign=bottom;" parent="nu0V4V_Gl1b4eorJf1zw-9" connectable="0" vertex="1">
          <mxGeometry x="1" relative="1" as="geometry">
            <mxPoint x="-20" y="1" as="offset" />
          </mxGeometry>
        </mxCell>
        <mxCell id="nu0V4V_Gl1b4eorJf1zw-11" value="" style="shape=link;html=1;rounded=0;entryX=0.25;entryY=1;entryDx=0;entryDy=0;exitX=1;exitY=0.5;exitDx=0;exitDy=0;" parent="1" source="zhcVx_HWICW13ROKuOu6-218" target="zhcVx_HWICW13ROKuOu6-106" edge="1">
          <mxGeometry relative="1" as="geometry">
            <mxPoint x="1170" y="1190" as="sourcePoint" />
            <mxPoint x="1330" y="1190" as="targetPoint" />
            <Array as="points">
              <mxPoint x="1345" y="1110" />
            </Array>
          </mxGeometry>
        </mxCell>
        <mxCell id="nu0V4V_Gl1b4eorJf1zw-12" value="N" style="resizable=0;html=1;whiteSpace=wrap;align=right;verticalAlign=bottom;" parent="nu0V4V_Gl1b4eorJf1zw-11" connectable="0" vertex="1">
          <mxGeometry x="1" relative="1" as="geometry">
            <mxPoint x="-5" y="20" as="offset" />
          </mxGeometry>
        </mxCell>
        <mxCell id="nu0V4V_Gl1b4eorJf1zw-14" value="Determines Salary" style="shape=rhombus;perimeter=rhombusPerimeter;whiteSpace=wrap;html=1;align=center;" parent="1" vertex="1">
          <mxGeometry x="1750" y="1225" width="80" height="85" as="geometry" />
        </mxCell>
        <mxCell id="nu0V4V_Gl1b4eorJf1zw-15" value="" style="endArrow=none;html=1;rounded=0;entryX=1;entryY=0.5;entryDx=0;entryDy=0;exitX=0.5;exitY=1;exitDx=0;exitDy=0;" parent="1" source="nu0V4V_Gl1b4eorJf1zw-14" target="zhcVx_HWICW13ROKuOu6-148" edge="1">
          <mxGeometry relative="1" as="geometry">
            <mxPoint x="1290" y="1170" as="sourcePoint" />
            <mxPoint x="1450" y="1170" as="targetPoint" />
          </mxGeometry>
        </mxCell>
        <mxCell id="nu0V4V_Gl1b4eorJf1zw-16" value="" style="endArrow=none;html=1;rounded=0;entryX=0.5;entryY=0;entryDx=0;entryDy=0;exitX=0.649;exitY=0.975;exitDx=0;exitDy=0;exitPerimeter=0;" parent="1" source="zhcVx_HWICW13ROKuOu6-106" target="nu0V4V_Gl1b4eorJf1zw-14" edge="1">
          <mxGeometry relative="1" as="geometry">
            <mxPoint x="1634" y="1292" as="sourcePoint" />
            <mxPoint x="1594" y="1360" as="targetPoint" />
            <Array as="points">
              <mxPoint x="1480" y="1180" />
            </Array>
          </mxGeometry>
        </mxCell>
        <mxCell id="nu0V4V_Gl1b4eorJf1zw-21" value="Maintenance Requests" style="shape=ext;margin=3;double=1;whiteSpace=wrap;html=1;align=center;" parent="1" vertex="1">
          <mxGeometry x="870" y="910" width="100" height="40" as="geometry" />
        </mxCell>
        <mxCell id="nu0V4V_Gl1b4eorJf1zw-22" value="RequestID" style="ellipse;whiteSpace=wrap;html=1;align=center;" parent="1" vertex="1">
          <mxGeometry x="810" y="820" width="100" height="40" as="geometry" />
        </mxCell>
        <mxCell id="nu0V4V_Gl1b4eorJf1zw-24" value="Sends" style="shape=rhombus;double=1;perimeter=rhombusPerimeter;whiteSpace=wrap;html=1;align=center;" parent="1" vertex="1">
          <mxGeometry x="1090" y="970" width="120" height="60" as="geometry" />
        </mxCell>
        <mxCell id="nu0V4V_Gl1b4eorJf1zw-25" value="" style="endArrow=none;html=1;rounded=0;entryX=0;entryY=0.5;entryDx=0;entryDy=0;exitX=1;exitY=0.5;exitDx=0;exitDy=0;" parent="1" source="nu0V4V_Gl1b4eorJf1zw-21" target="nu0V4V_Gl1b4eorJf1zw-24" edge="1">
          <mxGeometry relative="1" as="geometry">
            <mxPoint x="950" y="970" as="sourcePoint" />
            <mxPoint x="1110" y="970" as="targetPoint" />
          </mxGeometry>
        </mxCell>
        <mxCell id="nu0V4V_Gl1b4eorJf1zw-26" value="" style="endArrow=none;html=1;rounded=0;entryX=1;entryY=0.5;entryDx=0;entryDy=0;exitX=0;exitY=0.5;exitDx=0;exitDy=0;" parent="1" source="zhcVx_HWICW13ROKuOu6-106" target="nu0V4V_Gl1b4eorJf1zw-24" edge="1">
          <mxGeometry relative="1" as="geometry">
            <mxPoint x="980" y="940" as="sourcePoint" />
            <mxPoint x="1100" y="1010" as="targetPoint" />
          </mxGeometry>
        </mxCell>
        <mxCell id="nu0V4V_Gl1b4eorJf1zw-29" value="Recieve" style="shape=rhombus;double=1;perimeter=rhombusPerimeter;whiteSpace=wrap;html=1;align=center;" parent="1" vertex="1">
          <mxGeometry x="930" y="1010" width="120" height="60" as="geometry" />
        </mxCell>
        <mxCell id="nu0V4V_Gl1b4eorJf1zw-30" value="" style="endArrow=none;html=1;rounded=0;entryX=0.5;entryY=1;entryDx=0;entryDy=0;exitX=0.75;exitY=0;exitDx=0;exitDy=0;" parent="1" source="zhcVx_HWICW13ROKuOu6-209" target="nu0V4V_Gl1b4eorJf1zw-29" edge="1">
          <mxGeometry relative="1" as="geometry">
            <mxPoint x="920" y="1100" as="sourcePoint" />
            <mxPoint x="1080" y="1100" as="targetPoint" />
          </mxGeometry>
        </mxCell>
        <mxCell id="nu0V4V_Gl1b4eorJf1zw-31" value="" style="endArrow=none;html=1;rounded=0;entryX=0.5;entryY=0;entryDx=0;entryDy=0;exitX=0.5;exitY=1;exitDx=0;exitDy=0;" parent="1" source="nu0V4V_Gl1b4eorJf1zw-21" target="nu0V4V_Gl1b4eorJf1zw-29" edge="1">
          <mxGeometry relative="1" as="geometry">
            <mxPoint x="905" y="1130" as="sourcePoint" />
            <mxPoint x="1000" y="1080" as="targetPoint" />
          </mxGeometry>
        </mxCell>
        <mxCell id="nu0V4V_Gl1b4eorJf1zw-34" value="Depends on" style="shape=rhombus;double=1;perimeter=rhombusPerimeter;whiteSpace=wrap;html=1;align=center;" parent="1" vertex="1">
          <mxGeometry x="1020" y="875" width="120" height="60" as="geometry" />
        </mxCell>
        <mxCell id="nu0V4V_Gl1b4eorJf1zw-35" value="" style="endArrow=none;html=1;rounded=0;exitX=0.5;exitY=0;exitDx=0;exitDy=0;entryX=0.5;entryY=1;entryDx=0;entryDy=0;" parent="1" source="nu0V4V_Gl1b4eorJf1zw-34" target="zhcVx_HWICW13ROKuOu6-62" edge="1">
          <mxGeometry relative="1" as="geometry">
            <mxPoint x="1460" y="800" as="sourcePoint" />
            <mxPoint x="1620" y="800" as="targetPoint" />
          </mxGeometry>
        </mxCell>
        <mxCell id="nu0V4V_Gl1b4eorJf1zw-36" value="" style="endArrow=none;html=1;rounded=0;exitX=1;exitY=1;exitDx=0;exitDy=0;entryX=0;entryY=0;entryDx=0;entryDy=0;" parent="1" source="nu0V4V_Gl1b4eorJf1zw-34" target="zhcVx_HWICW13ROKuOu6-106" edge="1">
          <mxGeometry relative="1" as="geometry">
            <mxPoint x="1460" y="800" as="sourcePoint" />
            <mxPoint x="1620" y="800" as="targetPoint" />
          </mxGeometry>
        </mxCell>
        <mxCell id="nu0V4V_Gl1b4eorJf1zw-39" value="Manages" style="shape=rhombus;perimeter=rhombusPerimeter;whiteSpace=wrap;html=1;align=center;" parent="1" vertex="1">
          <mxGeometry x="1140" y="1120" width="120" height="60" as="geometry" />
        </mxCell>
        <mxCell id="nu0V4V_Gl1b4eorJf1zw-40" value="" style="endArrow=none;html=1;rounded=0;entryX=0.331;entryY=0.975;entryDx=0;entryDy=0;entryPerimeter=0;exitX=1;exitY=0.5;exitDx=0;exitDy=0;" parent="1" source="nu0V4V_Gl1b4eorJf1zw-39" target="zhcVx_HWICW13ROKuOu6-106" edge="1">
          <mxGeometry relative="1" as="geometry">
            <mxPoint x="1310" y="1340" as="sourcePoint" />
            <mxPoint x="1470" y="1340" as="targetPoint" />
            <Array as="points">
              <mxPoint x="1353" y="1150" />
            </Array>
          </mxGeometry>
        </mxCell>
        <mxCell id="nu0V4V_Gl1b4eorJf1zw-41" value="" style="endArrow=none;html=1;rounded=0;entryX=1;entryY=0.5;entryDx=0;entryDy=0;exitX=0;exitY=0.5;exitDx=0;exitDy=0;" parent="1" source="nu0V4V_Gl1b4eorJf1zw-39" target="zhcVx_HWICW13ROKuOu6-209" edge="1">
          <mxGeometry relative="1" as="geometry">
            <mxPoint x="1070" y="1120" as="sourcePoint" />
            <mxPoint x="930" y="1140" as="targetPoint" />
            <Array as="points" />
          </mxGeometry>
        </mxCell>
        <mxCell id="nu0V4V_Gl1b4eorJf1zw-44" value="External Company" style="whiteSpace=wrap;html=1;align=center;" parent="1" vertex="1">
          <mxGeometry x="275" y="990" width="100" height="40" as="geometry" />
        </mxCell>
        <mxCell id="nu0V4V_Gl1b4eorJf1zw-46" value="CName" style="ellipse;whiteSpace=wrap;html=1;align=center;fontStyle=4;" parent="1" vertex="1">
          <mxGeometry x="145" y="960" width="100" height="40" as="geometry" />
        </mxCell>
        <mxCell id="nu0V4V_Gl1b4eorJf1zw-47" value="Number" style="ellipse;whiteSpace=wrap;html=1;align=center;" parent="1" vertex="1">
          <mxGeometry x="335" y="920" width="100" height="40" as="geometry" />
        </mxCell>
        <mxCell id="nu0V4V_Gl1b4eorJf1zw-48" value="Email" style="ellipse;whiteSpace=wrap;html=1;align=center;" parent="1" vertex="1">
          <mxGeometry x="405" y="960" width="100" height="40" as="geometry" />
        </mxCell>
        <mxCell id="nu0V4V_Gl1b4eorJf1zw-49" value="Address" style="ellipse;whiteSpace=wrap;html=1;align=center;" parent="1" vertex="1">
          <mxGeometry x="215" y="920" width="100" height="40" as="geometry" />
        </mxCell>
        <mxCell id="nu0V4V_Gl1b4eorJf1zw-50" value="" style="endArrow=none;html=1;rounded=0;exitX=1;exitY=0.5;exitDx=0;exitDy=0;entryX=0;entryY=1;entryDx=0;entryDy=0;" parent="1" source="nu0V4V_Gl1b4eorJf1zw-44" target="nu0V4V_Gl1b4eorJf1zw-48" edge="1">
          <mxGeometry relative="1" as="geometry">
            <mxPoint x="525" y="940" as="sourcePoint" />
            <mxPoint x="685" y="940" as="targetPoint" />
          </mxGeometry>
        </mxCell>
        <mxCell id="nu0V4V_Gl1b4eorJf1zw-51" value="" style="endArrow=none;html=1;rounded=0;exitX=0.75;exitY=0;exitDx=0;exitDy=0;entryX=0.5;entryY=1;entryDx=0;entryDy=0;" parent="1" source="nu0V4V_Gl1b4eorJf1zw-44" target="nu0V4V_Gl1b4eorJf1zw-47" edge="1">
          <mxGeometry relative="1" as="geometry">
            <mxPoint x="385" y="1020" as="sourcePoint" />
            <mxPoint x="430" y="1004" as="targetPoint" />
          </mxGeometry>
        </mxCell>
        <mxCell id="nu0V4V_Gl1b4eorJf1zw-52" value="" style="endArrow=none;html=1;rounded=0;exitX=0.25;exitY=0;exitDx=0;exitDy=0;entryX=0.5;entryY=1;entryDx=0;entryDy=0;" parent="1" source="nu0V4V_Gl1b4eorJf1zw-44" target="nu0V4V_Gl1b4eorJf1zw-49" edge="1">
          <mxGeometry relative="1" as="geometry">
            <mxPoint x="360" y="1000" as="sourcePoint" />
            <mxPoint x="385" y="970" as="targetPoint" />
          </mxGeometry>
        </mxCell>
        <mxCell id="nu0V4V_Gl1b4eorJf1zw-53" value="" style="endArrow=none;html=1;rounded=0;exitX=0;exitY=0.5;exitDx=0;exitDy=0;entryX=1;entryY=1;entryDx=0;entryDy=0;" parent="1" source="nu0V4V_Gl1b4eorJf1zw-44" target="nu0V4V_Gl1b4eorJf1zw-46" edge="1">
          <mxGeometry relative="1" as="geometry">
            <mxPoint x="310" y="1000" as="sourcePoint" />
            <mxPoint x="275" y="970" as="targetPoint" />
          </mxGeometry>
        </mxCell>
        <mxCell id="nu0V4V_Gl1b4eorJf1zw-65" value="Contatct" style="shape=rhombus;perimeter=rhombusPerimeter;whiteSpace=wrap;html=1;align=center;" parent="1" vertex="1">
          <mxGeometry x="530" y="1040" width="120" height="60" as="geometry" />
        </mxCell>
        <mxCell id="nu0V4V_Gl1b4eorJf1zw-66" value="" style="endArrow=none;html=1;rounded=0;exitX=1;exitY=0.75;exitDx=0;exitDy=0;entryX=0;entryY=0.5;entryDx=0;entryDy=0;" parent="1" source="nu0V4V_Gl1b4eorJf1zw-44" target="nu0V4V_Gl1b4eorJf1zw-65" edge="1">
          <mxGeometry relative="1" as="geometry">
            <mxPoint x="540" y="1090" as="sourcePoint" />
            <mxPoint x="700" y="1090" as="targetPoint" />
          </mxGeometry>
        </mxCell>
        <mxCell id="nu0V4V_Gl1b4eorJf1zw-67" value="" style="endArrow=none;html=1;rounded=0;exitX=1;exitY=1;exitDx=0;exitDy=0;entryX=0;entryY=0.25;entryDx=0;entryDy=0;" parent="1" source="nu0V4V_Gl1b4eorJf1zw-65" target="zhcVx_HWICW13ROKuOu6-209" edge="1">
          <mxGeometry relative="1" as="geometry">
            <mxPoint x="385" y="1030" as="sourcePoint" />
            <mxPoint x="540" y="1080" as="targetPoint" />
          </mxGeometry>
        </mxCell>
        <mxCell id="nu0V4V_Gl1b4eorJf1zw-75" value="Promotes" style="shape=rhombus;perimeter=rhombusPerimeter;whiteSpace=wrap;html=1;align=center;" parent="1" vertex="1">
          <mxGeometry x="1220" y="1165" width="120" height="60" as="geometry" />
        </mxCell>
        <mxCell id="nu0V4V_Gl1b4eorJf1zw-77" value="" style="endArrow=none;html=1;rounded=0;exitX=1;exitY=0.75;exitDx=0;exitDy=0;entryX=0;entryY=0.5;entryDx=0;entryDy=0;" parent="1" source="zhcVx_HWICW13ROKuOu6-209" target="nu0V4V_Gl1b4eorJf1zw-75" edge="1">
          <mxGeometry relative="1" as="geometry">
            <mxPoint x="1130" y="1210" as="sourcePoint" />
            <mxPoint x="1290" y="1210" as="targetPoint" />
          </mxGeometry>
        </mxCell>
        <mxCell id="nu0V4V_Gl1b4eorJf1zw-78" value="" style="endArrow=none;html=1;rounded=0;exitX=1;exitY=0.5;exitDx=0;exitDy=0;entryX=0.409;entryY=0.989;entryDx=0;entryDy=0;entryPerimeter=0;" parent="1" source="nu0V4V_Gl1b4eorJf1zw-75" target="zhcVx_HWICW13ROKuOu6-106" edge="1">
          <mxGeometry relative="1" as="geometry">
            <mxPoint x="930" y="1160" as="sourcePoint" />
            <mxPoint x="1230" y="1205" as="targetPoint" />
            <Array as="points">
              <mxPoint x="1360" y="1195" />
            </Array>
          </mxGeometry>
        </mxCell>
        <mxCell id="DpSQirHrr8RSOz0LgGYw-1" value="Contract" style="shape=ext;margin=3;double=1;whiteSpace=wrap;html=1;align=center;" parent="1" vertex="1">
          <mxGeometry x="640" y="1250" width="100" height="40" as="geometry" />
        </mxCell>
        <mxCell id="DpSQirHrr8RSOz0LgGYw-4" value="&lt;span style=&quot;border-bottom: 1px dotted&quot;&gt;ContractID&lt;/span&gt;" style="ellipse;whiteSpace=wrap;html=1;align=center;" parent="1" vertex="1">
          <mxGeometry x="540" y="1300" width="100" height="40" as="geometry" />
        </mxCell>
        <mxCell id="VpMmsd9qQlzFPIOgRUUT-1" value="Suggestion" style="ellipse;whiteSpace=wrap;html=1;align=center;" parent="1" vertex="1">
          <mxGeometry x="930" y="1165" width="60" height="20" as="geometry" />
        </mxCell>
        <mxCell id="VpMmsd9qQlzFPIOgRUUT-2" value="" style="endArrow=none;html=1;rounded=0;exitX=0;exitY=0;exitDx=0;exitDy=0;entryX=1;entryY=1;entryDx=0;entryDy=0;" parent="1" source="zhcVx_HWICW13ROKuOu6-223" target="VpMmsd9qQlzFPIOgRUUT-1" edge="1">
          <mxGeometry width="50" height="50" relative="1" as="geometry">
            <mxPoint x="1000" y="1140" as="sourcePoint" />
            <mxPoint x="1050" y="1090" as="targetPoint" />
          </mxGeometry>
        </mxCell>
        <mxCell id="VpMmsd9qQlzFPIOgRUUT-3" value="Write" style="shape=rhombus;double=1;perimeter=rhombusPerimeter;whiteSpace=wrap;html=1;align=center;" parent="1" vertex="1">
          <mxGeometry x="870" y="1210" width="120" height="60" as="geometry" />
        </mxCell>
        <mxCell id="VpMmsd9qQlzFPIOgRUUT-4" value="Review" style="shape=rhombus;double=1;perimeter=rhombusPerimeter;whiteSpace=wrap;html=1;align=center;" parent="1" vertex="1">
          <mxGeometry x="960" y="1270" width="120" height="60" as="geometry" />
        </mxCell>
        <mxCell id="BpOhzayPRbnaPP8rH86A-1" value="Specialty" style="ellipse;whiteSpace=wrap;html=1;align=center;" vertex="1" parent="1">
          <mxGeometry x="1310" y="1741" width="100" height="40" as="geometry" />
        </mxCell>
        <mxCell id="BpOhzayPRbnaPP8rH86A-2" value="" style="endArrow=none;html=1;rounded=0;exitX=0.5;exitY=0;exitDx=0;exitDy=0;entryX=0.5;entryY=1;entryDx=0;entryDy=0;" edge="1" parent="1" source="BpOhzayPRbnaPP8rH86A-1" target="zhcVx_HWICW13ROKuOu6-135">
          <mxGeometry width="50" height="50" relative="1" as="geometry">
            <mxPoint x="1460" y="1740" as="sourcePoint" />
            <mxPoint x="1510" y="1690" as="targetPoint" />
          </mxGeometry>
        </mxCell>
        <mxCell id="BpOhzayPRbnaPP8rH86A-3" value="&lt;font style=&quot;font-size: 8px;&quot;&gt;SecurityClearanceLevel&lt;/font&gt;" style="ellipse;whiteSpace=wrap;html=1;align=center;" vertex="1" parent="1">
          <mxGeometry x="1000" y="1541" width="100" height="40" as="geometry" />
        </mxCell>
        <mxCell id="BpOhzayPRbnaPP8rH86A-4" value="" style="endArrow=none;html=1;rounded=0;exitX=1;exitY=0.5;exitDx=0;exitDy=0;entryX=0;entryY=0.5;entryDx=0;entryDy=0;" edge="1" parent="1" source="BpOhzayPRbnaPP8rH86A-3" target="zhcVx_HWICW13ROKuOu6-146">
          <mxGeometry width="50" height="50" relative="1" as="geometry">
            <mxPoint x="1280" y="1590" as="sourcePoint" />
            <mxPoint x="1330" y="1540" as="targetPoint" />
          </mxGeometry>
        </mxCell>
        <mxCell id="BpOhzayPRbnaPP8rH86A-6" value="Specialty" style="ellipse;whiteSpace=wrap;html=1;align=center;" vertex="1" parent="1">
          <mxGeometry x="1150" y="1470" width="100" height="40" as="geometry" />
        </mxCell>
        <mxCell id="BpOhzayPRbnaPP8rH86A-7" value="" style="endArrow=none;html=1;rounded=0;exitX=0.5;exitY=0;exitDx=0;exitDy=0;entryX=0.5;entryY=1;entryDx=0;entryDy=0;" edge="1" parent="1" source="BpOhzayPRbnaPP8rH86A-6" target="zhcVx_HWICW13ROKuOu6-144">
          <mxGeometry width="50" height="50" relative="1" as="geometry">
            <mxPoint x="1540" y="1390" as="sourcePoint" />
            <mxPoint x="1590" y="1340" as="targetPoint" />
          </mxGeometry>
        </mxCell>
        <mxCell id="BpOhzayPRbnaPP8rH86A-8" value="BarNumber" style="ellipse;whiteSpace=wrap;html=1;align=center;" vertex="1" parent="1">
          <mxGeometry x="1190" y="1320" width="100" height="40" as="geometry" />
        </mxCell>
        <mxCell id="BpOhzayPRbnaPP8rH86A-9" value="" style="endArrow=none;html=1;rounded=0;exitX=0.5;exitY=0;exitDx=0;exitDy=0;entryX=0.5;entryY=1;entryDx=0;entryDy=0;" edge="1" parent="1" source="BpOhzayPRbnaPP8rH86A-8" target="zhcVx_HWICW13ROKuOu6-147">
          <mxGeometry width="50" height="50" relative="1" as="geometry">
            <mxPoint x="1340" y="1320" as="sourcePoint" />
            <mxPoint x="1390" y="1270" as="targetPoint" />
          </mxGeometry>
        </mxCell>
        <mxCell id="BpOhzayPRbnaPP8rH86A-10" value="&lt;font style=&quot;font-size: 9px;&quot;&gt;ProfessionalCertification &lt;/font&gt;" style="ellipse;whiteSpace=wrap;html=1;align=center;" vertex="1" parent="1">
          <mxGeometry x="1630" y="1250" width="100" height="40" as="geometry" />
        </mxCell>
        <mxCell id="BpOhzayPRbnaPP8rH86A-11" value="" style="endArrow=none;html=1;rounded=0;exitX=0;exitY=0.5;exitDx=0;exitDy=0;entryX=1;entryY=0.5;entryDx=0;entryDy=0;" edge="1" parent="1" source="BpOhzayPRbnaPP8rH86A-10" target="zhcVx_HWICW13ROKuOu6-145">
          <mxGeometry width="50" height="50" relative="1" as="geometry">
            <mxPoint x="1640" y="1240" as="sourcePoint" />
            <mxPoint x="1690" y="1190" as="targetPoint" />
          </mxGeometry>
        </mxCell>
        <mxCell id="BpOhzayPRbnaPP8rH86A-12" value="Competence Level" style="ellipse;whiteSpace=wrap;html=1;align=center;fontSize=11;" vertex="1" parent="1">
          <mxGeometry x="1600" y="1541" width="100" height="40" as="geometry" />
        </mxCell>
        <mxCell id="BpOhzayPRbnaPP8rH86A-13" value="" style="endArrow=none;html=1;rounded=0;exitX=1;exitY=0.5;exitDx=0;exitDy=0;entryX=0;entryY=0.5;entryDx=0;entryDy=0;" edge="1" parent="1" source="zhcVx_HWICW13ROKuOu6-143" target="BpOhzayPRbnaPP8rH86A-12">
          <mxGeometry width="50" height="50" relative="1" as="geometry">
            <mxPoint x="1640" y="1570" as="sourcePoint" />
            <mxPoint x="1690" y="1520" as="targetPoint" />
          </mxGeometry>
        </mxCell>
        <mxCell id="BpOhzayPRbnaPP8rH86A-14" value="" style="endArrow=none;html=1;rounded=0;entryX=0.5;entryY=1;entryDx=0;entryDy=0;exitX=0.5;exitY=0;exitDx=0;exitDy=0;" edge="1" parent="1" source="BpOhzayPRbnaPP8rH86A-15" target="nu0V4V_Gl1b4eorJf1zw-44">
          <mxGeometry width="50" height="50" relative="1" as="geometry">
            <mxPoint x="360" y="1070" as="sourcePoint" />
            <mxPoint x="410" y="1020" as="targetPoint" />
          </mxGeometry>
        </mxCell>
        <mxCell id="BpOhzayPRbnaPP8rH86A-15" value="Type" style="ellipse;whiteSpace=wrap;html=1;align=center;" vertex="1" parent="1">
          <mxGeometry x="275" y="1070" width="100" height="40" as="geometry" />
        </mxCell>
        <mxCell id="BpOhzayPRbnaPP8rH86A-16" value="Certification" style="ellipse;whiteSpace=wrap;html=1;align=center;" vertex="1" parent="1">
          <mxGeometry x="1484" y="1400" width="100" height="40" as="geometry" />
        </mxCell>
        <mxCell id="BpOhzayPRbnaPP8rH86A-17" value="" style="endArrow=none;html=1;rounded=0;exitX=0.5;exitY=0;exitDx=0;exitDy=0;entryX=0.5;entryY=1;entryDx=0;entryDy=0;" edge="1" parent="1" source="BpOhzayPRbnaPP8rH86A-16" target="zhcVx_HWICW13ROKuOu6-148">
          <mxGeometry width="50" height="50" relative="1" as="geometry">
            <mxPoint x="1520" y="1400" as="sourcePoint" />
            <mxPoint x="1570" y="1350" as="targetPoint" />
          </mxGeometry>
        </mxCell>
      </root>
    </mxGraphModel>
  </diagram>
</mxfile>
